Plot:

It is about a young couple whose daughter is torn to death by an angry Alsatian dog not very far from their home. To get over the terrible loss of their daughter they decide to start a new life in Ireland in a small village called Wake Wood. Soon after they arrive there the girl's mother Louise finds that the local villagers are involved in some rather unusual behavior.




 Video
 ID : 0
 Format : MPEG-4 Visual
 Format profile : Advanced Simple@L5
 Format settings, BVOP : Yes
 Format settings, QPel : No
 Format settings, GMC : No warppoints
 Format settings, Matrix : Default (H.263)
 Muxing mode : Packed bitstream
 Codec ID : XVID
 Codec ID/Hint : XviD
 Duration : 1h 26mn
 Bit rate : 1 017 Kbps
 Width : 656 pixels
 Height : 352 pixels
 Display aspect ratio : 1.864
 Frame rate : 25.000 fps
 Color space : YUV
 Chroma subsampling : 4:2:0
 Bit depth : 8 bits
 Scan type : Progressive
 Bits/(Pixel*Frame) : 0.176
 Stream size : 629 MiB (90%)
 Writing library : XviD 57

 Audio
 ID : 1
 Format : MPEG Audio
 Format version : Version 1
 Format profile : Layer 3
 Mode : Joint stereo
 Mode extension : MS Stereo
 Codec ID : 55
 Codec ID/Hint : MP3
 Duration : 1h 26mn
 Bit rate mode : Variable
 Bit rate : 104 Kbps
 Nominal bit rate : 112 Kbps
 Channel(s) : 2 channels
 Sampling rate : 48.0 KHz
 Stream size : 64.3 MiB (9%)
 Alignment : Aligned on interleaves
 Interleave, duration : 24 ms (0.60 video frame)
 Interleave, preload duration : 495 ms
 Writing library : LAME3.97 
 Encoding settings : -m j -V 4 -q 2 -lowpass 16 --abr 112



 IMDB 
http://www.imdb.com/title/tt1296899/



==================================    
http://thepiratebay.org/user/hiest
==================================



Screens:
 
http://www.freeimagehosting.net/uploads/th.2e71771426.jpg